<svg width="203" height="55" viewBox="0 0 203 55" fill="none" xmlns="http://www.w3.org/2000/svg">
<path d="M16.4447 54C15.9249 52.9697 14.8633 52.4165 14.0007 51.6682C11.5235 49.4883 9.94203 46.8094 9.24531 43.6208C9.22319 43.5232 9.20107 43.4147 9.1679 43.2954C6.12668 43.2954 3.0744 43.2954 0 43.2954C0 30.2374 0 17.201 0 4.143C0.0774129 4.17554 0.143766 4.19723 0.21012 4.22976C4.40147 6.62663 7.1441 10.1189 8.39377 14.7174C8.61495 15.5308 8.63706 16.3876 8.74765 17.2336C9.12366 20.227 9.49967 23.2312 9.87567 26.2245C9.96414 26.962 10.0526 27.6887 10.1521 28.4587C9.57708 28.372 9.04624 28.4262 8.53753 28.6431C7.47587 29.0986 6.79021 30.1506 6.85657 31.2243C6.93398 32.439 7.73023 33.4151 8.88036 33.7188C9.32272 33.8381 9.76508 33.9357 10.2185 34.0333C10.307 34.055 10.4618 34.0008 10.495 33.9357C11.6562 31.9727 12.6957 29.9554 13.4145 27.7863C14.5757 24.3049 15.007 20.7475 14.808 17.0926C14.6863 14.7608 14.6421 12.429 14.5536 10.0972C14.4983 8.64391 14.432 7.1906 14.3877 5.7373C14.3324 3.6441 14.9849 1.78952 16.3562 0.173528C16.3894 0.130146 16.4115 0.0867644 16.4558 0C17.1193 0.715806 17.5838 1.46415 17.9377 2.28841C18.4574 3.50311 18.6344 4.77204 18.568 6.0952C18.4796 7.74372 18.4574 9.39225 18.3911 11.0516C18.3026 13.4159 18.2031 15.7694 18.1367 18.1338C17.9819 23.4915 19.2979 28.4804 22.0295 33.1223C22.1733 33.3718 22.317 33.6104 22.4387 33.8707C22.5161 34.0333 22.5935 34.0876 22.7815 34.0333C23.1686 33.9249 23.5667 33.849 23.9648 33.7514C25.4688 33.3826 26.3646 32.0594 26.0881 30.617C25.8227 29.1962 24.4846 28.2744 22.9695 28.4479C22.9363 28.4479 22.9031 28.4479 22.8368 28.437C22.9031 27.9056 22.9584 27.385 23.0248 26.8644C23.2902 24.7279 23.5667 22.5913 23.8321 20.4547C24.0533 18.6869 24.2413 16.9191 24.4956 15.1729C24.7168 13.6654 25.3361 12.288 26.066 10.954C27.6253 8.11247 29.8371 5.88913 32.6903 4.27315C32.7788 4.21892 32.8673 4.17554 33 4.11046C33 17.1794 33 30.2157 33 43.2737C29.9367 43.2737 26.8954 43.2737 23.8432 43.2737C23.7105 43.7835 23.5999 44.2715 23.4561 44.7487C22.5824 47.6337 20.9789 50.0414 18.6344 51.9827C18.369 52.1996 18.0483 52.3623 17.7939 52.6009C17.3405 53.0239 16.9202 53.5011 16.4447 54ZM2.75369 9.72846C2.75369 16.4419 2.75369 23.0793 2.75369 29.7493C3.19605 29.7493 3.61629 29.7385 4.02547 29.7493C4.22453 29.7602 4.29088 29.6734 4.34618 29.4999C4.76642 28.1876 5.57373 27.1681 6.77915 26.474C7.06669 26.3113 7.11092 26.1378 7.06669 25.8558C6.74598 23.383 6.43633 20.9211 6.12668 18.4483C5.99397 17.4288 5.94973 16.3985 5.71749 15.4007C5.2309 13.3075 4.19135 11.4529 2.75369 9.72846ZM30.2353 29.7493C30.2353 23.0685 30.2353 16.4419 30.2353 9.81522C30.2131 9.80438 30.18 9.79353 30.1578 9.78269C29.7376 10.3792 29.2842 10.9649 28.8971 11.5939C28.0898 12.8845 27.4373 14.2511 27.2162 15.7586C26.9065 17.8301 26.6853 19.9016 26.4199 21.9731C26.254 23.2854 26.0881 24.6086 25.9112 25.9209C25.878 26.1703 25.9333 26.3005 26.1656 26.4415C27.3931 27.1356 28.2004 28.1551 28.6428 29.4782C28.6759 29.5758 28.7755 29.7277 28.8529 29.7385C29.3174 29.7602 29.7708 29.7493 30.2353 29.7493ZM2.74263 32.4716C2.74263 35.183 2.74263 37.851 2.74263 40.5407C4.81066 40.5407 6.84551 40.5407 8.83613 40.5407C9.01307 39.2284 9.20107 37.9269 9.37802 36.582C6.87869 36.235 5.05396 34.9769 4.26877 32.4716C3.76005 32.4716 3.2624 32.4716 2.74263 32.4716ZM30.2574 32.4607C29.7929 32.4607 29.3616 32.4499 28.9414 32.4716C28.8529 32.4716 28.7091 32.5692 28.6759 32.656C27.9682 34.7491 26.4973 35.9855 24.3076 36.4411C24.0533 36.4953 23.7989 36.5604 23.633 36.6037C23.821 37.9486 23.998 39.2392 24.1749 40.5298C26.1656 40.5298 28.2115 40.5298 30.2574 40.5298C30.2574 37.8401 30.2574 35.1721 30.2574 32.4607ZM19.7624 34.6624C18.3468 32.3089 17.2741 29.847 16.5 27.244C15.7259 29.847 14.6531 32.3089 13.2376 34.6732C14.5536 35.0203 15.6263 35.7144 16.5 36.723C17.3847 35.6927 18.4574 35.0203 19.7624 34.6624ZM17.9155 43.2737C17.9155 45.1609 17.9155 47.0155 17.9155 48.9243C19.4749 47.2758 20.4923 45.4212 21.001 43.2737C19.9504 43.2737 18.944 43.2737 17.9155 43.2737ZM15.1066 43.2846C14.067 43.2846 13.0496 43.2846 11.999 43.2846C12.5188 45.4429 13.5362 47.3083 15.1066 48.946C15.1066 47.0263 15.1066 45.1717 15.1066 43.2846ZM15.0845 40.5407C15.2061 38.9898 13.68 37.2762 12.1538 37.2436C11.8442 38.3065 11.6783 39.4019 11.6893 40.5407C12.8395 40.5407 13.9564 40.5407 15.0845 40.5407ZM20.8462 37.2436C19.2758 37.2979 17.617 39.2067 17.9377 40.5407C19.0436 40.5407 20.1605 40.5407 21.2996 40.5407C21.3328 39.4127 21.1558 38.3282 20.8462 37.2436Z" fill="white"/>
<path d="M58.9041 1.0271L63.1365 11.1686L67.3906 1.0271H68.682V12.5273H67.7161V7.51635L67.7921 2.38582L63.5163 12.5273H62.7675L58.5134 2.4293L58.5894 7.49461V12.5273H57.6235V1.0271H58.9041Z" fill="white"/>
<path d="M71.3193 1.50545C71.3193 1.33153 71.3736 1.17936 71.493 1.04892C71.6123 0.929354 71.7643 0.864136 71.9705 0.864136C72.1658 0.864136 72.3286 0.929354 72.448 1.04892C72.5673 1.16849 72.6216 1.32067 72.6216 1.50545C72.6216 1.69024 72.5673 1.83154 72.448 1.95111C72.3286 2.07068 72.1658 2.1359 71.9705 2.1359C71.7751 2.1359 71.6123 2.07068 71.493 1.95111C71.3736 1.84241 71.3193 1.69024 71.3193 1.50545ZM72.4263 12.5165H71.4821V3.97289H72.4263V12.5165Z" fill="white"/>
<path d="M81.5418 12.5165H80.5977V8.60341H76.0071V12.5165H75.063V3.9729H76.0071V7.80992H80.5977V3.98377H81.5418V12.5165Z" fill="white"/>
<path d="M84.0054 1.50545C84.0054 1.33153 84.0596 1.17936 84.179 1.04892C84.2984 0.929354 84.4503 0.864136 84.6565 0.864136C84.8519 0.864136 85.0146 0.929354 85.134 1.04892C85.2534 1.16849 85.3076 1.32067 85.3076 1.50545C85.3076 1.69024 85.2534 1.83154 85.134 1.95111C85.0146 2.07068 84.8519 2.1359 84.6565 2.1359C84.4612 2.1359 84.2984 2.07068 84.179 1.95111C84.0705 1.84241 84.0054 1.69024 84.0054 1.50545ZM85.1232 12.5165H84.179V3.97289H85.1232V12.5165Z" fill="white"/>
<path d="M90.8313 11.8859C91.4933 11.8859 92.0359 11.7011 92.4809 11.3316C92.9258 10.962 93.1646 10.4837 93.1971 9.88589H94.1087C94.087 10.4076 93.9242 10.8859 93.6204 11.3098C93.3165 11.7337 92.9258 12.0707 92.4266 12.3207C91.9274 12.5598 91.3956 12.6794 90.8313 12.6794C89.7135 12.6794 88.8236 12.2881 88.1725 11.5055C87.5214 10.7229 87.1958 9.67936 87.1958 8.36412V8.08151C87.1958 7.24454 87.3477 6.49452 87.6407 5.84234C87.9338 5.19015 88.357 4.69014 88.9105 4.34231C89.4639 3.99448 90.1042 3.80969 90.8422 3.80969C91.7755 3.80969 92.546 4.09231 93.1537 4.64666C93.7614 5.20102 94.087 5.94017 94.1304 6.85323H93.2188C93.1754 6.19017 92.9367 5.64668 92.5026 5.23363C92.0685 4.82058 91.515 4.61406 90.8422 4.61406C89.9957 4.61406 89.3337 4.91841 88.8562 5.53798C88.3895 6.15756 88.1508 7.01627 88.1508 8.12499V8.39673C88.1508 9.48371 88.3895 10.3315 88.8562 10.9511C89.312 11.5816 89.974 11.8859 90.8313 11.8859Z" fill="white"/>
<path d="M102.129 4.788H99.0252V12.5273H98.081V4.788H95.0967V3.98364H102.14V4.788H102.129Z" fill="white"/>
<path d="M106.34 12.6797C105.612 12.6797 104.961 12.5057 104.375 12.147C103.789 11.7883 103.333 11.2883 103.008 10.647C102.682 10.0057 102.52 9.28829 102.52 8.49479V8.15783C102.52 7.33173 102.682 6.59259 102.997 5.9404C103.312 5.27735 103.757 4.76647 104.321 4.38603C104.885 4.00559 105.504 3.8208 106.166 3.8208C107.197 3.8208 108.022 4.1795 108.629 4.88604C109.237 5.59257 109.541 6.55998 109.541 7.78826V8.32088H103.453V8.50566C103.453 9.47307 103.735 10.2774 104.288 10.9296C104.842 11.5709 105.536 11.897 106.383 11.897C106.882 11.897 107.338 11.8101 107.718 11.6253C108.108 11.4405 108.456 11.147 108.77 10.7448L109.356 11.1905C108.662 12.1796 107.663 12.6797 106.34 12.6797ZM106.166 4.62516C105.46 4.62516 104.864 4.88604 104.375 5.40778C103.887 5.92953 103.594 6.6252 103.485 7.50565H108.597V7.40782C108.575 6.58172 108.336 5.91866 107.891 5.39692C107.457 4.88604 106.882 4.62516 106.166 4.62516Z" fill="white"/>
<path d="M118.234 8.33151C118.234 9.66849 117.941 10.7229 117.355 11.5055C116.769 12.2881 115.976 12.6794 114.989 12.6794C113.817 12.6794 112.927 12.2664 112.308 11.4511V15.8099H111.375V3.97274H112.254L112.297 5.17928C112.916 4.26622 113.806 3.80969 114.967 3.80969C115.987 3.80969 116.79 4.201 117.365 4.97276C117.952 5.74451 118.234 6.82062 118.234 8.19021V8.33151ZM117.29 8.16846C117.29 7.08149 117.062 6.22278 116.617 5.58146C116.172 4.95102 115.542 4.63579 114.75 4.63579C114.175 4.63579 113.676 4.7771 113.263 5.04885C112.851 5.33146 112.525 5.73364 112.308 6.26626V10.3642C112.536 10.8533 112.862 11.2229 113.274 11.4837C113.697 11.7446 114.197 11.8751 114.761 11.8751C115.553 11.8751 116.172 11.5598 116.617 10.9185C117.072 10.2989 117.29 9.37501 117.29 8.16846Z" fill="white"/>
<path d="M123.475 11.8859C124.137 11.8859 124.68 11.7011 125.125 11.3316C125.57 10.962 125.809 10.4837 125.841 9.88589H126.753C126.731 10.4076 126.568 10.8859 126.264 11.3098C125.961 11.7337 125.57 12.0707 125.071 12.3207C124.571 12.5598 124.04 12.6794 123.475 12.6794C122.358 12.6794 121.468 12.2881 120.817 11.5055C120.165 10.7229 119.84 9.67936 119.84 8.36412V8.08151C119.84 7.24454 119.992 6.49452 120.285 5.84234C120.578 5.19015 121.001 4.69014 121.555 4.34231C122.108 3.99448 122.748 3.80969 123.486 3.80969C124.42 3.80969 125.19 4.09231 125.798 4.64666C126.405 5.20102 126.731 5.94017 126.774 6.85323H125.863C125.819 6.19017 125.581 5.64668 125.147 5.23363C124.713 4.82058 124.159 4.61406 123.486 4.61406C122.64 4.61406 121.978 4.91841 121.5 5.53798C121.034 6.15756 120.795 7.01627 120.795 8.12499V8.39673C120.795 9.48371 121.034 10.3315 121.5 10.9511C121.956 11.5816 122.618 11.8859 123.475 11.8859Z" fill="white"/>
<path d="M134.772 4.788H131.669V12.5273H130.725V4.788H127.74V3.98364H134.783V4.788H134.772Z" fill="white"/>
<path d="M136.411 12.5165V3.9729H139.537C140.622 3.9729 141.447 4.16856 142.033 4.549C142.608 4.94031 142.901 5.50554 142.901 6.25555C142.901 6.67947 142.771 7.05991 142.51 7.39687C142.25 7.73384 141.881 7.97297 141.381 8.12515C141.935 8.23384 142.391 8.47298 142.727 8.84255C143.064 9.21212 143.237 9.64691 143.237 10.1469C143.237 10.8969 142.955 11.4839 142.402 11.897C141.848 12.31 141.067 12.5165 140.047 12.5165H136.411ZM137.355 7.79905H139.743C141.23 7.77731 141.967 7.27731 141.967 6.28816C141.967 5.76641 141.761 5.38597 141.36 5.14683C140.947 4.9077 140.35 4.78813 139.547 4.78813H137.355V7.79905ZM137.355 8.59255V11.7339H140.09C140.795 11.7339 141.349 11.5926 141.729 11.3209C142.109 11.0491 142.304 10.6578 142.304 10.136C142.304 9.65778 142.109 9.28821 141.729 9.0056C141.349 8.72298 140.795 8.59255 140.09 8.59255H137.355Z" fill="white"/>
<path d="M144.822 8.12522C144.822 7.29912 144.985 6.55998 145.299 5.90779C145.614 5.24474 146.07 4.73386 146.645 4.37515C147.231 4.00558 147.882 3.83167 148.62 3.83167C149.76 3.83167 150.671 4.23385 151.377 5.02734C152.082 5.82083 152.429 6.88607 152.429 8.20131V8.39697C152.429 9.22307 152.267 9.96221 151.952 10.6253C151.637 11.2883 151.181 11.7992 150.606 12.1579C150.031 12.5166 149.369 12.6905 148.631 12.6905C147.502 12.6905 146.58 12.2883 145.875 11.4948C145.169 10.7014 144.811 9.63612 144.811 8.32088V8.12522H144.822ZM145.766 8.3861C145.766 9.40785 146.027 10.2448 146.558 10.897C147.09 11.5492 147.774 11.8753 148.631 11.8753C149.478 11.8753 150.172 11.5492 150.704 10.897C151.236 10.2448 151.496 9.37525 151.496 8.29914V8.11435C151.496 7.46217 151.377 6.86433 151.138 6.32084C150.899 5.77735 150.552 5.3643 150.118 5.05995C149.684 4.76647 149.185 4.61429 148.62 4.61429C147.785 4.61429 147.09 4.94038 146.558 5.60344C146.027 6.26649 145.766 7.12521 145.766 8.20131V8.3861Z" fill="white"/>
<path d="M63.6142 25.7232C63.6142 26.1036 63.4948 26.4515 63.2669 26.7667C63.039 27.0819 62.7134 27.3428 62.301 27.5276C63.2777 27.8645 63.7661 28.5276 63.7661 29.5059C63.7661 30.2885 63.4514 30.9189 62.8111 31.3863C62.1708 31.8537 61.3243 32.082 60.2608 32.082C59.6097 32.082 59.0128 31.9733 58.481 31.7559C57.9493 31.5385 57.526 31.2233 57.233 30.8211C56.9292 30.4189 56.7881 29.9406 56.7881 29.3863H58.6981C58.6981 29.7341 58.85 30.0276 59.1647 30.2559C59.4795 30.495 59.8701 30.6037 60.3368 30.6037C60.8034 30.6037 61.1724 30.495 61.4546 30.2776C61.7259 30.0602 61.867 29.7776 61.867 29.4189C61.867 29.0058 61.7476 28.7015 61.5088 28.5167C61.2701 28.3319 60.8902 28.245 60.391 28.245H59.002V26.8645H60.4236C61.2809 26.8536 61.7042 26.5058 61.7042 25.8101C61.7042 25.4623 61.5848 25.1906 61.3352 24.9949C61.0856 24.7993 60.7492 24.7014 60.3151 24.7014C59.8918 24.7014 59.5446 24.8101 59.2516 25.0166C58.9585 25.2232 58.8175 25.484 58.8175 25.7993H56.9075C56.9075 25.0493 57.2222 24.4297 57.8516 23.9514C58.481 23.4731 59.2841 23.234 60.2608 23.234C61.3135 23.234 62.1383 23.4514 62.7243 23.8862C63.3212 24.3101 63.6142 24.9297 63.6142 25.7232Z" fill="white"/>
<path d="M70.4948 31.9299C70.408 31.7669 70.332 31.506 70.2778 31.1365C69.67 31.7778 68.9212 32.093 68.0422 32.093C67.1849 32.093 66.4903 31.843 65.9477 31.3539C65.4051 30.8647 65.1338 30.256 65.1338 29.5386C65.1338 28.6255 65.4702 27.9299 66.1431 27.4407C66.8159 26.9516 67.7817 26.7125 69.0406 26.7125H70.2127V26.1472C70.2127 25.7016 70.0933 25.3537 69.8437 25.082C69.5941 24.8211 69.2251 24.6798 68.715 24.6798C68.2809 24.6798 67.9228 24.7885 67.6407 25.0059C67.3585 25.2233 67.2174 25.5059 67.2174 25.8429H65.2966C65.2966 25.3755 65.4485 24.9407 65.7632 24.5276C66.0779 24.1146 66.4903 23.7994 67.0329 23.5711C67.5647 23.3428 68.1616 23.2233 68.8236 23.2233C69.822 23.2233 70.6142 23.4733 71.2111 23.9733C71.8079 24.4733 72.1118 25.1798 72.1227 26.0929V29.9408C72.1227 30.7125 72.2312 31.3212 72.4482 31.7778V31.9082H70.4948V31.9299ZM68.3895 30.5495C68.7693 30.5495 69.1274 30.4625 69.453 30.2777C69.7894 30.093 70.039 29.843 70.2018 29.5386V27.919H69.1708C68.4654 27.919 67.9228 28.0386 67.5755 28.2886C67.2174 28.5386 67.0438 28.8864 67.0438 29.3429C67.0438 29.7125 67.1632 30.006 67.4128 30.2234C67.6515 30.4299 67.9771 30.5495 68.3895 30.5495Z" fill="white"/>
<path d="M77.1684 28.5495H76.2026V31.93H74.2817V23.3864H76.2026V26.7995H77.0491L79.404 23.3864H81.7698L78.6878 27.4734L82.0302 31.93H79.5342L77.1684 28.5495Z" fill="white"/>
<path d="M82.269 27.5712C82.269 26.7342 82.4318 25.9842 82.7682 25.3103C83.1047 24.6363 83.5605 24.1255 84.1682 23.7668C84.7651 23.4081 85.4596 23.2233 86.2301 23.2233C87.3805 23.2233 88.3137 23.5928 89.03 24.332C89.7462 25.0711 90.1369 26.0603 90.1912 27.2886L90.202 27.7342C90.202 28.5712 90.0393 29.3321 89.7137 29.9951C89.3881 30.6582 88.9323 31.169 88.3246 31.5386C87.7277 31.8973 87.0332 32.0821 86.241 32.0821C85.0364 32.0821 84.0705 31.6799 83.3543 30.8756C82.6272 30.0712 82.269 29.006 82.269 27.669V27.5712ZM84.179 27.7451C84.179 28.6255 84.3635 29.3103 84.7216 29.8103C85.0798 30.3103 85.5898 30.5603 86.2301 30.5603C86.8704 30.5603 87.3805 30.3103 87.7386 29.7995C88.0967 29.2995 88.2812 28.5494 88.2812 27.582C88.2812 26.7233 88.0967 26.0385 87.7277 25.5277C87.3587 25.0168 86.8487 24.7668 86.2193 24.7668C85.5898 24.7668 85.1015 25.0168 84.7325 25.5168C84.3635 26.0059 84.179 26.7559 84.179 27.7451Z" fill="white"/>
<path d="M99.2858 27.745C99.2858 29.0711 98.9819 30.1254 98.385 30.9081C97.7882 31.6907 96.9851 32.0929 95.9758 32.0929C95.0425 32.0929 94.2937 31.7885 93.7294 31.1689V35.2234H91.8086V23.3862H93.5775L93.6535 24.2558C94.2178 23.571 94.9774 23.234 95.9433 23.234C96.9851 23.234 97.799 23.6253 98.3959 24.3971C98.9819 25.1688 99.2858 26.2558 99.2858 27.6254V27.745ZM97.3758 27.571C97.3758 26.7232 97.2021 26.0384 96.8657 25.5384C96.5293 25.0384 96.041 24.7884 95.4115 24.7884C94.6302 24.7884 94.0659 25.1145 93.7294 25.7558V29.5493C94.0767 30.2124 94.641 30.5494 95.4332 30.5494C96.041 30.5494 96.5185 30.2994 96.8657 29.8102C97.2021 29.3211 97.3758 28.5711 97.3758 27.571Z" fill="white"/>
<path d="M100.794 30.3972C101.326 29.7994 101.684 29.2342 101.857 28.7015C102.042 28.1689 102.15 27.4841 102.183 26.6472L102.291 23.3754H108.217V30.3864H109.4V34.4625H107.49V31.919H102.02V34.4625H100.078L100.088 30.3864H100.794V30.3972ZM103.04 30.3972H106.307V25.0384H104.158L104.104 26.6689C104.039 28.2341 103.681 29.4733 103.04 30.3972Z" fill="white"/>
<path d="M110.419 27.5712C110.419 26.7342 110.582 25.9842 110.919 25.3103C111.255 24.6363 111.711 24.1255 112.319 23.7668C112.915 23.4081 113.61 23.2233 114.381 23.2233C115.531 23.2233 116.464 23.5928 117.18 24.332C117.897 25.0711 118.287 26.0603 118.342 27.2886L118.352 27.7342C118.352 28.5712 118.19 29.3321 117.864 29.9951C117.539 30.6582 117.083 31.169 116.475 31.5386C115.878 31.8973 115.184 32.0821 114.391 32.0821C113.187 32.0821 112.221 31.6799 111.505 30.8756C110.778 30.0712 110.419 29.006 110.419 27.669V27.5712ZM112.329 27.7451C112.329 28.6255 112.514 29.3103 112.872 29.8103C113.23 30.3103 113.74 30.5603 114.381 30.5603C115.021 30.5603 115.531 30.3103 115.889 29.7995C116.247 29.2995 116.432 28.5494 116.432 27.582C116.432 26.7233 116.247 26.0385 115.878 25.5277C115.509 25.0168 114.999 24.7668 114.37 24.7668C113.74 24.7668 113.252 25.0168 112.883 25.5168C112.514 26.0059 112.329 26.7559 112.329 27.7451Z" fill="white"/>
<path d="M127.186 31.9299H125.266V28.4841H121.945V31.9299H120.024V23.3862H121.945V26.9406H125.266V23.3754H127.186V31.9299Z" fill="white"/>
<path d="M136.455 31.9299H134.534V28.4841H131.213V31.9299H129.292V23.3862H131.213V26.9406H134.534V23.3754H136.455V31.9299Z" fill="white"/>
<path d="M143.813 23.3864H145.723V31.93H143.813V26.2342L140.47 31.93H138.56V23.3864H140.47V29.0821L143.813 23.3864Z" fill="white"/>
<path d="M150.823 26.1906L152.451 23.3754H154.578L151.973 27.582L154.664 31.919H152.548L150.844 28.995L149.151 31.919H147.024L149.727 27.5928L147.122 23.3862H149.238L150.823 26.1906Z" fill="white"/>
<path d="M163.411 30.5494C163.889 30.5494 164.29 30.408 164.605 30.1363C164.92 29.8537 165.093 29.5167 165.104 29.1037H166.906C166.884 29.6363 166.721 30.1363 166.407 30.5928C166.092 31.0494 165.679 31.4189 165.148 31.6907C164.616 31.9624 164.041 32.0929 163.433 32.0929C162.239 32.0929 161.295 31.7016 160.59 30.9298C159.895 30.158 159.537 29.0928 159.537 27.7232V27.5276C159.537 26.2232 159.884 25.1906 160.579 24.4079C161.273 23.6253 162.218 23.234 163.422 23.234C164.431 23.234 165.267 23.5275 165.897 24.1253C166.537 24.7123 166.873 25.4949 166.906 26.4623H165.104C165.083 25.9732 164.92 25.571 164.605 25.2558C164.29 24.9406 163.9 24.7775 163.411 24.7775C162.793 24.7775 162.315 25.0058 161.979 25.4514C161.642 25.8971 161.469 26.5819 161.469 27.5058V27.8102C161.469 28.7341 161.632 29.4298 161.968 29.8863C162.294 30.3211 162.771 30.5494 163.411 30.5494Z" fill="white"/>
<path d="M175.588 31.93H173.667V24.9299H170.346V31.93H168.425V23.3864H175.588V31.93Z" fill="white"/>
<path d="M185.094 27.745C185.094 29.0711 184.79 30.1254 184.193 30.9081C183.596 31.6907 182.793 32.0929 181.784 32.0929C180.851 32.0929 180.102 31.7885 179.538 31.1689V35.2234H177.617V23.3862H179.386L179.462 24.2558C180.026 23.571 180.786 23.234 181.751 23.234C182.793 23.234 183.607 23.6253 184.204 24.3971C184.79 25.1688 185.094 26.2558 185.094 27.6254V27.745ZM183.184 27.571C183.184 26.7232 183.01 26.0384 182.674 25.5384C182.337 25.0384 181.849 24.7884 181.22 24.7884C180.438 24.7884 179.874 25.1145 179.538 25.7558V29.5493C179.885 30.2124 180.449 30.5494 181.241 30.5494C181.849 30.5494 182.327 30.2994 182.674 29.8102C183.01 29.3211 183.184 28.5711 183.184 27.571Z" fill="white"/>
<path d="M191.812 31.9299C191.725 31.7669 191.649 31.506 191.595 31.1365C190.987 31.7778 190.238 32.093 189.359 32.093C188.502 32.093 187.807 31.843 187.265 31.3539C186.722 30.8647 186.451 30.256 186.451 29.5386C186.451 28.6255 186.787 27.9299 187.46 27.4407C188.133 26.9516 189.099 26.7125 190.358 26.7125H191.53V26.1472C191.53 25.7016 191.41 25.3537 191.161 25.082C190.911 24.8211 190.542 24.6798 190.032 24.6798C189.598 24.6798 189.24 24.7885 188.958 25.0059C188.675 25.2233 188.534 25.5059 188.534 25.8429H186.624C186.624 25.3755 186.776 24.9407 187.091 24.5276C187.406 24.1146 187.818 23.7994 188.361 23.5711C188.892 23.3428 189.489 23.2233 190.151 23.2233C191.15 23.2233 191.942 23.4733 192.539 23.9733C193.136 24.4733 193.44 25.1798 193.45 26.0929V29.9408C193.45 30.7125 193.559 31.3212 193.776 31.7778V31.9082H191.812V31.9299ZM189.706 30.5495C190.086 30.5495 190.444 30.4625 190.77 30.2777C191.106 30.093 191.356 29.843 191.519 29.5386V27.919H190.488C189.782 27.919 189.24 28.0386 188.892 28.2886C188.534 28.5386 188.361 28.8864 188.361 29.3429C188.361 29.7125 188.48 30.006 188.73 30.2234C188.968 30.4299 189.294 30.5495 189.706 30.5495Z" fill="white"/>
<path d="M195.599 31.93V23.3864H199.061C200.233 23.3864 201.112 23.5929 201.731 23.9951C202.338 24.4081 202.642 24.9842 202.642 25.756C202.642 26.1473 202.523 26.506 202.273 26.8212C202.024 27.1364 201.666 27.3756 201.188 27.5386C201.741 27.6582 202.186 27.8864 202.512 28.2451C202.838 28.593 203 29.0169 203 29.4952C203 30.2886 202.707 30.8974 202.121 31.3104C201.535 31.7235 200.689 31.93 199.593 31.93H195.599ZM197.509 26.9082H199.083C200.168 26.9082 200.711 26.5821 200.711 25.9407C200.711 25.2668 200.2 24.919 199.17 24.8973H197.509V26.9082ZM197.509 28.2886V30.4082H199.604C200.591 30.4082 201.08 30.0604 201.08 29.3539C201.08 28.6473 200.58 28.2886 199.582 28.2886H197.509Z" fill="white"/>
<path d="M61.4544 47.2019L64.7209 39.8322H65.8604L61.4218 49.4519L61.1396 49.9954C60.5862 50.9954 59.7614 51.4845 58.6762 51.4845C58.3506 51.4845 58.1119 51.4519 57.9382 51.3976L58.0251 50.6041C58.1336 50.6367 58.3615 50.6584 58.687 50.6584C59.3382 50.6584 59.8591 50.3215 60.2606 49.6584L60.456 49.2997L60.9552 48.278L56.6143 39.8213H57.7212L61.4544 47.2019Z" fill="white"/>
<path d="M69.0513 47.4193H67.7382V51.3325H66.7832V42.7888H67.7382V46.5824H69.0296L72.1551 42.7888H73.3488L69.8436 46.9302L73.7287 51.3325H72.4807L69.0513 47.4193Z" fill="white"/>
<path d="M81.9543 47.1476C81.9543 48.4845 81.6613 49.5389 81.0753 50.3215C80.4893 51.1041 79.6971 51.4955 78.7095 51.4955C77.5375 51.4955 76.6476 51.0824 76.029 50.2672V54.626H75.0957V42.7888H75.9747L76.0181 43.9953C76.6367 43.0823 77.5266 42.6257 78.6878 42.6257C79.7079 42.6257 80.511 43.017 81.0862 43.7888C81.6722 44.5606 81.9543 45.6367 81.9543 47.0062V47.1476ZM80.9993 46.9845C80.9993 45.8975 80.7714 45.0388 80.3265 44.3975C79.8815 43.7671 79.2521 43.4518 78.4599 43.4518C77.8847 43.4518 77.3855 43.5931 76.9731 43.8649C76.5608 44.1475 76.2352 44.5497 76.0181 45.0823V49.1802C76.246 49.6693 76.5716 50.0389 76.984 50.2998C77.4072 50.5607 77.9064 50.6911 78.4708 50.6911C79.263 50.6911 79.8815 50.3759 80.3265 49.7346C80.7823 49.1041 80.9993 48.1911 80.9993 46.9845Z" fill="white"/>
<path d="M89.4209 51.3324C89.3232 51.0607 89.269 50.6694 89.2364 50.1367C88.9 50.5715 88.4876 50.8976 87.9667 51.1368C87.4458 51.3759 86.9141 51.4846 86.3389 51.4846C85.5141 51.4846 84.8521 51.2563 84.3529 50.7998C83.8429 50.3433 83.5933 49.7672 83.5933 49.0606C83.5933 48.2237 83.9405 47.5715 84.6351 47.0823C85.3296 46.5932 86.2846 46.3541 87.5218 46.3541H89.2364V45.3867C89.2364 44.778 89.0519 44.2997 88.6721 43.941C88.2923 43.5931 87.7497 43.4192 87.0334 43.4192C86.3714 43.4192 85.8288 43.5931 85.4056 43.9192C84.9715 44.2562 84.7545 44.6584 84.7545 45.1367L83.8103 45.1258C83.8103 44.4519 84.125 43.854 84.7545 43.3649C85.3839 42.8649 86.1652 42.6149 87.0768 42.6149C88.0318 42.6149 88.7806 42.854 89.3232 43.3323C89.8767 43.8105 90.1589 44.4736 90.1697 45.3214V49.365C90.1697 50.1911 90.2565 50.8107 90.4302 51.2237V51.3216H89.4209V51.3324ZM86.4583 50.6476C87.0877 50.6476 87.652 50.4955 88.1512 50.1911C88.6504 49.8867 89.0085 49.4737 89.2364 48.9628V47.0823H87.5435C86.5993 47.0932 85.8722 47.2671 85.3405 47.6041C84.8087 47.9411 84.5483 48.3976 84.5483 48.9845C84.5483 49.4628 84.7219 49.865 85.08 50.1802C85.4273 50.4954 85.8939 50.6476 86.4583 50.6476Z" fill="white"/>
<path d="M90.9727 40.4084C90.9727 40.2345 91.0269 40.0823 91.1463 39.9519C91.2548 39.8323 91.4176 39.7671 91.6238 39.7671C91.8191 39.7671 91.9819 39.8323 92.1013 39.9519C92.2207 40.0714 92.2749 40.2236 92.2749 40.4084C92.2749 40.5823 92.2207 40.7345 92.1013 40.8541C91.9819 40.9736 91.8191 41.0389 91.6238 41.0389C91.4176 41.0389 91.2548 40.9736 91.1463 40.8541C91.0269 40.7236 90.9727 40.5823 90.9727 40.4084ZM93.7291 51.3325H92.785V42.7889H93.7291V51.3325ZM94.4128 40.4084C94.4128 40.2345 94.4671 40.0823 94.5865 39.9519C94.7058 39.8323 94.8578 39.7671 95.064 39.7671C95.2702 39.7671 95.4329 39.8323 95.5414 39.9519C95.6608 40.0714 95.7151 40.2236 95.7151 40.4084C95.7151 40.5823 95.6608 40.7345 95.5414 40.8541C95.4221 40.9736 95.2702 41.0389 95.064 41.0389C94.8686 41.0389 94.7058 40.9736 94.5865 40.8541C94.4671 40.7345 94.4128 40.5823 94.4128 40.4084Z" fill="white"/>
<path d="M102.834 51.3325H101.89V47.4193H97.2996V51.3325H96.3555V42.7888H97.2996V46.615H101.89V42.7888H102.834V51.3325Z" fill="white"/>
<path d="M110.962 42.7888H111.907V51.3325H110.962V44.3106L106.361 51.3325H105.428V42.7888H106.361V49.8216L110.962 42.7888Z" fill="white"/>
</svg>
